<?xml version="1.0" encoding="UTF-8"?><svg id="a" xmlns="http://www.w3.org/2000/svg" viewBox="0 0 162 40"><path d="m155.49,24.99h-9.86c.39,1.51,1.63,2.36,3.39,2.36,1.31,0,2.63-.53,3.41-1.46l2.16,2.16c-1.23,1.66-3.53,2.54-5.83,2.54-4,0-6.94-2.74-6.94-6.77,0-4.23,3.19-6.86,6.94-6.86s6.77,2.63,6.77,6.64c.01.36-.01.8-.04,1.39h0Zm-3.61-2.37c-.11-1.54-1.4-2.46-3.06-2.46-1.49,0-2.8.7-3.19,2.46h6.24Z" style="fill:#fff;"/><path d="m136.47,30.34l-4.59-5.66v5.66h-3.67V10.31h3.67v10.94l3.3-3.99h4.7l-5.1,5.74,6.24,7.3-4.56.03h0Z" style="fill:#fff;"/><path d="m124.51,17.29v13.04h-3.66v-1.61c-.93,1.29-2.74,1.87-4.2,1.87-3.36,0-6.41-2.6-6.41-6.8s3.06-6.8,6.41-6.8c1.51,0,3.27.56,4.2,1.87v-1.57h3.66Zm-3.77,6.5c0-2.01-1.69-3.36-3.39-3.36-1.84-.03-3.36,1.44-3.39,3.29v.07c.04,1.87,1.59,3.36,3.46,3.31,1.81-.03,3.27-1.5,3.31-3.31Z" style="fill:#fff;"/><path d="m108.64,20.11h-2.77v10.21h-3.67v-10.21h-2.39v-2.83h2.39v-4.79h3.67v4.79h2.77v2.83Z" style="fill:#fff;"/><path d="m97.24,17.29v13.04h-3.67v-1.61c-.93,1.29-2.74,1.87-4.2,1.87-3.36,0-6.41-2.6-6.41-6.8s3.06-6.8,6.41-6.8c1.51,0,3.27.56,4.2,1.87v-1.57h3.67Zm-3.77,6.5c0-2.01-1.69-3.36-3.39-3.36-1.84-.03-3.36,1.44-3.39,3.3v.07c0,1.87,1.51,3.39,3.39,3.39,1.87-.01,3.39-1.53,3.39-3.4h0Z" style="fill:#fff;"/><path d="m81.76,17.37l-.84,3.5c-.57-.31-1.21-.49-1.87-.47-1.87,0-3.17,1.73-3.17,5.46v4.49h-3.67v-13.06h3.66v2.77c.73-2.19,2.21-3.11,3.83-3.11.7.01,1.49.13,2.07.43h0Z" style="fill:#fff;"/><path d="m64.86,17.29h3.67v13.04h-3.67v-13.04Zm1.8-6.67l-1.93,1.1v2.21l1.91,1.1,1.91-1.1v-2.21l-1.9-1.1Z" style="fill:#fff;"/><path d="m60.66,11.04v19.29h-3.89v-7.83h-7.2v7.84h-3.9V11.06h3.9v7.94h7.2v-7.96h3.89Z" style="fill:#fff;"/><polyline points="19.44 4.57 6.5 12.04 6.5 27.63 20 35.43 33.5 27.63 33.5 17.47 26.44 21.53 19.47 17.5 19.47 9.44 26.53 5.41 31.01 7.89 31.01 10.6 26.53 8.01 21.73 10.74 21.73 16.2 26.46 18.93 35.76 13.57 35.76 28.93 20 38.03 4.24 28.93 4.24 10.74 19.44 1.97" style="fill:#a83d3d;"/><rect width="162" height="40" style="fill:none;"/></svg>