<?xml version="1.0" standalone="no"?>
<!DOCTYPE svg PUBLIC "-//W3C//DTD SVG 20010904//EN"
 "http://www.w3.org/TR/2001/REC-SVG-20010904/DTD/svg10.dtd">
<svg version="1.0" xmlns="http://www.w3.org/2000/svg"
 width="700.000000pt" height="700.000000pt" viewBox="0 0 700.000000 700.000000"
 preserveAspectRatio="xMidYMid meet">
<metadata>
Created by potrace 1.11, written by Peter Selinger 2001-2013
</metadata>
<g transform="translate(0.000000,700.000000) scale(0.100000,-0.100000)"
fill="#000000" stroke="none">
<path d="M3155 6514 c-126 -74 -241 -140 -255 -148 -14 -7 -140 -80 -280 -161
-140 -81 -302 -175 -360 -208 -58 -33 -118 -68 -135 -78 -16 -10 -68 -40 -115
-66 -47 -27 -158 -92 -248 -144 -90 -51 -184 -106 -210 -120 -26 -15 -218
-126 -427 -247 l-380 -220 0 -1592 0 -1593 180 -105 c99 -58 270 -157 380
-220 110 -63 238 -137 285 -165 47 -27 103 -60 125 -72 22 -12 82 -46 133 -76
52 -30 112 -65 135 -78 99 -57 875 -505 904 -522 18 -10 161 -93 319 -184 157
-91 289 -165 294 -165 5 0 62 31 127 69 65 37 219 127 343 198 124 71 302 174
395 228 153 88 235 135 337 193 18 11 105 61 193 112 88 51 232 134 320 185
88 51 288 166 445 257 157 91 292 168 300 172 8 3 78 44 155 89 l140 83 1
1342 c1 738 -1 1342 -3 1342 -4 0 -114 -61 -183 -102 -19 -11 -172 -99 -340
-196 -291 -167 -366 -210 -587 -339 -54 -31 -114 -65 -133 -76 -41 -23 -185
-106 -215 -124 -11 -7 -27 -16 -35 -20 -8 -4 -41 -22 -73 -41 l-58 -34 -413
239 -414 238 0 478 1 477 371 211 c204 116 393 224 419 240 l48 29 82 -48 c45
-27 89 -51 97 -55 8 -4 29 -15 45 -26 49 -30 416 -241 475 -274 30 -16 59 -34
64 -38 6 -5 14 -9 18 -9 5 0 7 106 6 236 l-3 236 -40 22 c-22 12 -92 51 -155
86 -63 35 -133 73 -155 85 -22 12 -112 62 -200 110 -88 49 -176 97 -196 108
l-36 19 -54 -30 c-30 -16 -83 -47 -119 -67 -107 -62 -123 -71 -170 -97 -25
-14 -88 -50 -140 -80 -52 -30 -115 -66 -140 -80 -204 -115 -458 -260 -470
-268 -8 -5 -35 -21 -60 -34 -91 -49 -81 38 -82 -754 0 -387 1 -704 3 -706 5
-3 207 -119 252 -145 18 -10 104 -60 192 -111 88 -51 178 -103 200 -115 22
-13 161 -93 308 -178 l268 -155 62 37 c34 21 82 49 107 63 25 14 133 76 240
138 107 62 215 124 240 138 25 14 115 66 200 115 85 49 171 98 190 109 19 11
69 40 111 64 42 24 78 44 80 44 3 0 3 -1589 0 -1742 -1 -36 -2 -37 -142 -117
-78 -45 -145 -81 -150 -81 -5 0 -9 -4 -9 -10 0 -5 -4 -10 -9 -10 -4 0 -134
-72 -287 -161 -255 -147 -486 -281 -1184 -684 -135 -78 -265 -153 -290 -167
-25 -14 -80 -46 -123 -72 -43 -25 -81 -46 -83 -46 -2 0 -22 -11 -43 -24 -46
-29 -4 -48 -357 157 -137 79 -341 197 -454 262 -113 65 -257 148 -320 185 -63
37 -254 147 -425 245 -396 227 -736 424 -755 435 -8 6 -32 19 -53 30 -33 18
-37 24 -38 63 -4 210 -3 2681 1 2687 4 7 196 120 490 288 88 50 145 83 180
104 45 26 614 355 658 380 18 10 102 58 185 106 84 49 233 135 332 192 431
248 415 237 416 278 0 42 0 330 0 380 -1 17 -4 32 -8 31 -5 0 -111 -61 -238
-135z"/>
</g>
</svg>
