<svg xmlns="http://www.w3.org/2000/svg" viewBox="0 0 1059.07 252.42"><path d="M1088.4,174.93h-69c2.74,10.58,11.37,16.46,23.71,16.46,9.22,0,18.43-3.72,23.92-10.19l15.09,15.09c-8.63,11.56-24.7,17.84-40.77,17.84-28,0-48.61-19.21-48.61-47.44,0-29.59,22.35-48,48.61-48,26.07,0,47.43,18.43,47.43,46.46C1088.79,167.67,1088.6,170.81,1088.4,174.93Zm-25.28-16.66c-.79-10.78-9.8-17.25-21.37-17.25-10.38,0-19.6,4.9-22.34,17.25Z" transform="translate(-29.71 -13.79)" style="fill:#fff"/><path d="M955.32,212.36l-32.14-39.59v39.59H897.5V72.22h25.68v76.64L946.3,121h32.93l-35.67,40.18,43.71,51.15Z" transform="translate(-29.71 -13.79)" style="fill:#fff"/><path d="M871.63,121v91.33H846V201c-6.47,9-19.21,13.14-29.4,13.14-23.52,0-44.88-18.23-44.88-47.63s21.36-47.63,44.88-47.63c10.59,0,22.93,3.92,29.4,13.13V121Zm-26.46,45.5c0-14.11-11.76-23.52-23.72-23.52A23.39,23.39,0,0,0,797.74,166v.47a23.72,23.72,0,0,0,47.43,0Z" transform="translate(-29.71 -13.79)" style="fill:#fff"/><path d="M760.5,140.82H741.09v71.54H715.42V140.82H698.76V121h16.66V87.51h25.67V121H760.5Z" transform="translate(-29.71 -13.79)" style="fill:#fff"/><path d="M680.73,121v91.33H655.05V201c-6.47,9-19.21,13.14-29.4,13.14-23.52,0-44.88-18.23-44.88-47.63s21.36-47.63,44.88-47.63c10.59,0,22.93,3.92,29.4,13.13V121Zm-26.46,45.5c0-14.11-11.76-23.52-23.72-23.52A23.39,23.39,0,0,0,606.83,166v.46a23.72,23.72,0,0,0,47.44,0Z" transform="translate(-29.71 -13.79)" style="fill:#fff"/><path d="M572.34,121.61l-5.88,24.5a26.68,26.68,0,0,0-13.13-3.33c-13.13,0-22.15,12.15-22.15,38.22v31.36H505.51V121H531v19.4c5.09-15.29,15.48-21.76,26.85-21.76C562.74,118.67,568.23,119.46,572.34,121.61Z" transform="translate(-29.71 -13.79)" style="fill:#fff"/><path d="M454,121h25.68v91.33H454Zm12.58-46.74L453.15,82V97.48l13.39,7.73,13.39-7.73V82Z" transform="translate(-29.71 -13.79)" style="fill:#fff"/><path d="M424.56,77.32v135H397.32V157.48H347v54.88H319.7v-135H347V133h50.37V77.32Z" transform="translate(-29.71 -13.79)" style="fill:#fff"/><polyline points="106.35 18.2 15.77 70.5 15.77 179.65 110.29 234.22 204.81 179.65 204.81 108.48 155.44 136.9 106.6 108.71 106.6 52.27 156.01 24.12 187.44 41.42 187.44 60.42 155.96 42.29 122.36 61.43 122.36 99.6 155.45 118.7 220.58 81.2 220.58 188.75 110.29 252.42 0 188.75 0 61.4 106.35 0" style="fill:#a83d3d"/></svg>