<?xml version="1.0" standalone="no"?>
<!DOCTYPE svg PUBLIC "-//W3C//DTD SVG 20010904//EN"
 "http://www.w3.org/TR/2001/REC-SVG-20010904/DTD/svg10.dtd">
<svg version="1.0" xmlns="http://www.w3.org/2000/svg"
 width="632.000000pt" height="632.000000pt" viewBox="0 0 632.000000 632.000000"
 preserveAspectRatio="xMidYMid meet">
<metadata>
Created by potrace 1.11, written by Peter Selinger 2001-2013
</metadata>
<g transform="translate(0.000000,632.000000) scale(0.100000,-0.100000)"
fill="#000000" stroke="none">
<path d="M3080 6270 c-47 -27 -89 -53 -95 -57 -5 -5 -21 -14 -35 -20 -14 -7
-47 -25 -75 -41 -27 -16 -79 -46 -115 -67 -36 -21 -78 -45 -95 -55 -16 -10
-46 -26 -65 -36 -19 -11 -37 -21 -40 -24 -5 -5 -24 -16 -88 -51 -20 -11 -53
-30 -72 -41 -19 -12 -80 -47 -135 -78 -55 -31 -156 -90 -225 -129 -69 -40
-143 -83 -165 -96 -81 -46 -631 -363 -665 -383 -19 -12 -84 -49 -145 -84 -60
-34 -122 -69 -137 -78 -14 -8 -132 -76 -262 -150 l-236 -135 0 -1585 1 -1585
115 -65 c64 -36 128 -72 142 -81 38 -23 127 -74 227 -129 33 -19 62 -36 65
-39 6 -7 83 -50 117 -66 13 -5 23 -13 23 -17 0 -5 5 -8 11 -8 10 0 87 -43 159
-89 14 -8 27 -16 30 -16 3 0 16 -8 30 -17 25 -16 375 -218 460 -266 25 -13 72
-40 105 -60 57 -33 126 -72 170 -96 11 -6 22 -13 25 -16 3 -3 14 -10 25 -16
80 -44 131 -72 201 -115 45 -27 87 -49 93 -49 6 0 11 -4 11 -10 0 -5 5 -10 10
-10 6 0 40 -18 76 -40 36 -22 68 -40 70 -40 1 0 67 -38 146 -84 79 -46 157
-91 173 -100 17 -9 48 -28 70 -41 22 -13 47 -27 55 -31 8 -5 41 -23 72 -41
l56 -33 172 100 c95 55 176 100 181 100 5 0 9 3 9 8 0 4 10 12 23 18 57 28
143 78 149 88 4 6 8 8 8 3 0 -4 17 4 38 17 37 24 606 356 692 404 25 13 50 28
55 32 6 5 33 21 61 37 47 26 680 393 714 414 50 30 344 199 347 199 2 0 22 12
46 27 43 28 64 40 175 103 l62 35 -2 1584 -3 1584 -142 82 c-78 45 -149 88
-158 95 -8 7 -15 9 -15 6 0 -4 -13 2 -29 13 -16 12 -34 21 -40 21 -6 0 -11 5
-11 10 0 6 -4 10 -9 10 -6 0 -87 45 -181 100 -94 55 -175 100 -181 100 -5 0
-9 4 -9 8 0 4 -12 13 -27 19 -16 7 -55 28 -88 47 -33 20 -96 56 -140 81 -44
25 -98 57 -120 71 -22 13 -47 27 -55 31 -8 4 -53 29 -100 56 -47 27 -105 61
-130 75 -25 14 -58 33 -75 43 -16 10 -43 26 -60 35 -16 9 -73 42 -125 73 -52
30 -97 56 -100 56 -3 0 -16 8 -30 17 -21 13 -350 203 -470 270 -19 11 -93 54
-165 96 -71 41 -155 89 -185 105 -30 16 -59 34 -64 38 -14 13 -13 13 -106 -41z
m156 -276 c35 -20 66 -40 70 -45 3 -5 10 -7 15 -4 5 4 9 1 9 -4 0 -6 4 -11 10
-11 5 0 38 -17 72 -38 35 -21 70 -41 78 -45 8 -4 32 -17 52 -29 34 -21 259
-152 384 -223 49 -28 239 -138 276 -160 117 -68 183 -105 190 -105 4 0 8 -4 8
-10 0 -5 4 -10 10 -10 10 0 346 -192 367 -210 7 -5 16 -10 21 -10 5 0 20 -8
33 -19 13 -10 26 -18 29 -18 3 0 16 -6 30 -15 23 -14 292 -170 415 -240 28
-16 57 -33 65 -38 74 -45 193 -110 200 -110 6 0 10 -4 10 -10 0 -5 6 -10 13
-10 6 0 22 -8 35 -18 l23 -18 0 -1325 c0 -728 -1 -1374 -1 -1436 l0 -111 -42
-25 c-24 -14 -59 -34 -78 -45 -19 -11 -91 -52 -160 -92 -69 -40 -140 -81 -158
-91 -18 -11 -93 -54 -165 -96 -73 -42 -148 -85 -167 -96 -19 -10 -75 -43 -125
-72 -49 -29 -106 -62 -125 -73 -19 -10 -102 -58 -184 -106 -82 -47 -153 -86
-158 -86 -4 0 -8 -4 -8 -10 0 -5 -5 -10 -10 -10 -6 0 -134 -72 -285 -160 -151
-88 -276 -160 -279 -160 -3 0 -35 -18 -73 -41 -37 -22 -75 -45 -83 -49 -21
-12 -220 -128 -307 -179 l-73 -42 -135 78 c-74 43 -152 87 -173 99 -20 11 -93
54 -162 94 -181 105 -191 111 -239 137 -25 14 -77 44 -115 67 -39 23 -91 53
-116 67 -25 13 -46 27 -48 32 -2 4 -8 7 -13 7 -5 0 -39 18 -75 40 -36 22 -70
40 -74 40 -4 0 -13 7 -20 15 -7 8 -16 13 -20 10 -5 -3 -11 -1 -15 5 -3 6 -39
28 -78 51 -40 22 -79 44 -87 49 -31 19 -293 170 -296 170 -1 0 -48 27 -103 60
-56 33 -106 60 -111 60 -6 0 -10 5 -10 10 0 6 -5 10 -12 10 -6 0 -44 20 -84
45 -39 25 -77 45 -83 45 -6 0 -11 5 -11 10 0 6 -5 10 -11 10 -6 0 -63 31 -127
69 -138 81 -187 109 -224 128 -15 8 -31 19 -35 25 -3 7 -7 653 -7 1437 -1
1253 1 1427 14 1442 8 9 128 81 265 159 138 79 293 168 345 198 52 30 111 64
132 76 87 50 245 142 263 153 11 7 27 16 35 20 20 9 211 120 230 133 8 6 29
17 45 26 17 8 44 23 60 34 17 10 41 25 55 33 51 27 387 222 457 264 40 23 75
43 78 43 5 0 63 34 131 77 10 7 35 21 54 31 19 10 98 56 175 100 77 45 142 82
143 82 2 0 33 -16 68 -36z"/>
<path d="M4355 4714 c-71 -42 -155 -89 -185 -106 -30 -17 -67 -38 -82 -47
-111 -65 -256 -147 -272 -154 -11 -4 -23 -12 -26 -16 -3 -5 -19 -15 -36 -24
l-32 -16 2 -446 1 -446 30 -17 c17 -9 33 -21 37 -27 4 -5 8 -6 8 -1 0 5 6 3
14 -3 21 -17 656 -380 671 -383 13 -3 188 91 193 104 2 4 7 8 12 8 5 0 48 23
97 51 48 29 113 65 143 82 30 17 57 34 58 39 2 4 8 8 13 8 6 0 64 32 130 70
105 63 119 74 119 98 1 15 1 213 1 441 0 329 -3 417 -13 426 -14 13 -743 435
-749 434 -2 0 -62 -34 -134 -75z m317 -324 c95 -54 178 -103 183 -107 6 -5 31
-19 58 -33 99 -52 90 -19 91 -345 1 -158 -1 -290 -4 -295 -7 -11 -100 -68
-132 -81 -16 -6 -28 -15 -28 -20 0 -5 -4 -9 -10 -9 -5 0 -44 -20 -86 -45 -41
-25 -78 -45 -81 -45 -3 0 -17 -8 -31 -18 -15 -11 -53 -33 -85 -50 l-58 -32
-107 62 c-59 34 -118 68 -132 75 -14 8 -38 23 -55 33 -16 10 -52 30 -79 45
-26 15 -69 39 -94 55 l-45 28 0 292 c1 161 5 296 10 300 4 5 35 24 68 43 209
119 401 231 410 238 5 5 14 9 21 9 7 0 90 -45 186 -100z"/>
</g>
</svg>
