<svg xmlns="http://www.w3.org/2000/svg" width="472.6" height="78.9"><path d="M472.3 55.6h-32.5c1.3 4.2 5.1 6.7 10.4 6.7a16.9 16.9 0 0011.3-4.3l7.2 9.2c-4.4 4.8-12 7.4-19.5 7.4-14.1 0-24.1-9.4-24.1-23s11.3-23.4 24.1-23.4 23.4 8.9 23.4 22.4c0 1.2-.1 2.9-.3 5m-13.8-8.2c-.1-4.4-4-7.3-9.1-7.3s-8.3 1.9-9.7 7.3zm-50.1 26.4l-13.8-18.2v18.2h-14.1V5.9h14.1v35.9l9.6-12.5h17.7L405.1 49l20.4 24.8h-17.1zm-39.7-44.5v44.5h-14v-5.1c-3.3 4.2-9.3 5.9-13.8 5.9-11.1 0-21.6-8.8-21.6-23.1s10.5-23.2 21.6-23.2c4.5 0 10.5 1.7 13.8 5.9v-4.9zm-14.6 22.2a10.3 10.3 0 10-10.2 10 10.2 10.2 0 0010.2-10m-39.2-11.6h-9.3v33.9h-14.1V39.9h-8.1V29.3h8.1v-16h14.1v16h9.3v10.6zm-39.8-10.6v44.5h-14v-5.1c-3.3 4.2-9.3 5.9-13.9 5.9-11 0-21.5-8.8-21.5-23.1s10.5-23.2 21.5-23.2c4.6 0 10.6 1.7 13.9 5.9v-4.9zm-14.6 22.2a10.3 10.3 0 10-10.2 10 10.2 10.2 0 0010.2-10m-37.5-22L219.7 43a12.4 12.4 0 00-6.4-1.8c-5.5 0-10.1 4.6-10.1 17.8v14.8h-14.1V29.3H203v9.4c2.6-7.4 7.9-10.5 13.3-10.5a15.1 15.1 0 016.7 1.3m-59.9-.2h14.1v44.5h-14.1zm14.7-9.1v-8.9l-7.7-4.5-7.7 4.5v8.9l7.7 4.4zM149.6 8.1v65.7h-15v-26H113v26H98V8.1h15v26.3h21.6V8.1h15zM34.2 0L0 19.7v39.5l34.2 19.7 34.1-19.8V19.6zm31 57.4l-31 17.9-31-17.9V21.5l31-17.9 31 17.9z"/><path d="M50.7 19.1l-9.6 5.5v11.1l9.6 5.5 9.5-5.5V24.6zm6.4 14.8l-6.4 3.7-6.4-3.7v-7.4l6.4-3.7 6.4 3.7z"/></svg>