<svg xmlns="http://www.w3.org/2000/svg" viewBox="0 0 24 24"><defs><style>.icon-jao-a{fill:#ffb41d;}.icon-jao-b{fill:#fff;}</style></defs><path class="icon-jao-a" d="M12,24A12,12,0,1,0,0,12,12,12,0,0,0,12,24Z"/><path class="icon-jao-b" d="M19.67,8.45,21,8.13l-1.26-.51.81-1.08L19.25,7,19.16,5.6l-.71,1.15-.94-1,.19,1.34L16.36,7l1,.9-1.12.75,1.35.05L17.21,10,18,9.32c0,.15,0,.3,0,.47l0,.73c.06,1.31.12,2.66.06,4-.05.85-.24,1.32-.66,1.57a1.06,1.06,0,0,1-.84.12,1.89,1.89,0,0,1-.94-.8l.15-.23A.83.83,0,0,0,15.59,14l-.25-.16a6.28,6.28,0,1,0-2,3.09l.26.16a.82.82,0,0,0,1.14-.24l.12-.18a3,3,0,0,0,1.37.9,2.37,2.37,0,0,0,.69.11,2.56,2.56,0,0,0,1.29-.37,3.11,3.11,0,0,0,1.38-2.75c.07-1.37,0-2.76-.06-4.11l0-.72c0-.18,0-.34,0-.5l.84.41Z"/></svg>