<svg xmlns="http://www.w3.org/2000/svg" viewBox="0 0 24 24"><defs><style>.icon-zenn-a{fill:#fff;}.icon-zenn-b{fill:#3ea8ff;}</style></defs><g><path class="icon-zenn-a" d="M12,24A12,12,0,1,0,0,12,12,12,0,0,0,12,24Z"/><path class="icon-zenn-b" d="M5.24,18.78H8.11a.39.39,0,0,0,.21-.06.43.43,0,0,0,.16-.14l7.91-13a.27.27,0,0,0,0-.12.5.5,0,0,0,0-.12.24.24,0,0,0-.08-.09.28.28,0,0,0-.12,0H13.45a.41.41,0,0,0-.19,0,.33.33,0,0,0-.13.13l-8,13.15a.19.19,0,0,0,0,.07.11.11,0,0,0,0,.08l0,.06Zm9.9-.18,3.73-6a.34.34,0,0,0,.05-.14.23.23,0,0,0,0-.14.27.27,0,0,0-.1-.11.35.35,0,0,0-.14,0H15.93a.32.32,0,0,0-.14,0,.27.27,0,0,0-.11.1l-3.84,6.12a.2.2,0,0,0,0,.11.21.21,0,0,0,0,.12.2.2,0,0,0,.09.09.27.27,0,0,0,.12,0H14.8a.38.38,0,0,0,.19,0A.5.5,0,0,0,15.14,18.6Z"/></g></svg>