<?xml version="1.0" encoding="UTF-8"?><svg id="a" xmlns="http://www.w3.org/2000/svg" viewBox="0 0 1134 280"><path d="M1088.4,174.9h-69c2.7,10.6,11.4,16.5,23.7,16.5,9.2,0,18.4-3.7,23.9-10.2l15.1,15.1c-8.6,11.6-24.7,17.8-40.8,17.8-28,0-48.6-19.2-48.6-47.4,0-29.6,22.3-48,48.6-48s47.4,18.4,47.4,46.5c.1,2.5-.1,5.6-.3,9.7Zm-25.3-16.6c-.8-10.8-9.8-17.2-21.4-17.2-10.4,0-19.6,4.9-22.3,17.2h43.7Z" style="fill:#fff;"/><path d="M955.3,212.4l-32.1-39.6v39.6h-25.7V72.2h25.7v76.6l23.1-27.9h32.9l-35.7,40.2,43.7,51.1-31.9,.2Z" style="fill:#fff;"/><path d="M871.6,121v91.3h-25.6v-11.3c-6.5,9-19.2,13.1-29.4,13.1-23.5,0-44.9-18.2-44.9-47.6s21.4-47.6,44.9-47.6c10.6,0,22.9,3.9,29.4,13.1v-11h25.6Zm-26.4,45.5c0-14.1-11.8-23.5-23.7-23.5-12.9-.2-23.5,10.1-23.7,23v.5c.3,13.1,11.1,23.5,24.2,23.2,12.7-.2,22.9-10.5,23.2-23.2Z" style="fill:#fff;"/><path d="M760.5,140.8h-19.4v71.5h-25.7v-71.5h-16.7v-19.8h16.7v-33.5h25.7v33.5h19.4v19.8Z" style="fill:#fff;"/><path d="M680.7,121v91.3h-25.7v-11.3c-6.5,9-19.2,13.1-29.4,13.1-23.5,0-44.9-18.2-44.9-47.6s21.4-47.6,44.9-47.6c10.6,0,22.9,3.9,29.4,13.1v-11h25.7Zm-26.4,45.5c0-14.1-11.8-23.5-23.7-23.5-12.9-.2-23.5,10.1-23.7,23.1v.5c0,13.1,10.6,23.7,23.7,23.7,13.1-.1,23.7-10.7,23.7-23.8h0Z" style="fill:#fff;"/><path d="M572.3,121.6l-5.9,24.5c-4-2.2-8.5-3.4-13.1-3.3-13.1,0-22.2,12.1-22.2,38.2v31.4h-25.7V121h25.6v19.4c5.1-15.3,15.5-21.8,26.8-21.8,4.9,.1,10.4,.9,14.5,3Z" style="fill:#fff;"/><path d="M454,121h25.7v91.3h-25.7V121Zm12.6-46.7l-13.5,7.7v15.5l13.4,7.7,13.4-7.7v-15.5l-13.3-7.7Z" style="fill:#fff;"/><path d="M424.6,77.3V212.3h-27.2v-54.8h-50.4v54.9h-27.3V77.4h27.3v55.6h50.4v-55.7h27.2Z" style="fill:#fff;"/><polyline points="136.1 32 45.5 84.3 45.5 193.4 140 248 234.5 193.4 234.5 122.3 185.1 150.7 136.3 122.5 136.3 66.1 185.7 37.9 217.1 55.2 217.1 74.2 185.7 56.1 152.1 75.2 152.1 113.4 185.2 132.5 250.3 95 250.3 202.5 140 266.2 29.7 202.5 29.7 75.2 136.1 13.8" style="fill:#a83d3d;"/><rect width="1134" height="280" style="fill:none;"/></svg>